<svg xmlns="http://www.w3.org/2000/svg" xmlns:xlink="http://www.w3.org/1999/xlink" width="45" height="45" viewBox="0 0 45 45">
  <defs>
    <clipPath id="clip-ic_foods">
      <rect width="45" height="45"/>
    </clipPath>
  </defs>
  <g id="ic_foods" clip-path="url(#clip-ic_foods)">
    <circle id="Ellipse_5" data-name="Ellipse 5" cx="22.5" cy="22.5" r="22.5" fill="#ebfdff"/>
    <g id="Group_4" data-name="Group 4">
      <g id="Path_2" data-name="Path 2" transform="translate(11 10.091)" fill="none">
        <path d="M11.35,0C17.619,0,22.7,3.867,22.7,8.638a4.03,4.03,0,0,1-.806,2.51c-1.43,2.123-5.988,1.873-10.545,1.873C5.675,13.022,0,13.409,0,8.638S5.082,0,11.35,0Z" stroke="none"/>
        <path d="M 11.3504638671875 1.999999046325684 C 8.753583908081055 1.999999046325684 6.333383560180664 2.753449440002441 4.535684585571289 4.121559143066406 C 2.900524139404297 5.365959167480469 2.000003814697266 6.969939231872559 2.000003814697266 8.638038635253906 C 2.000003814697266 9.658429145812988 2.345033645629883 10.12517929077148 3.367362976074219 10.48775863647461 C 4.775712966918945 10.98723888397217 7.007213592529297 11.02906894683838 8.988284111022949 11.02906894683838 C 9.371753692626953 11.02906894683838 9.759014129638672 11.02720928192139 10.14818382263184 11.02534866333008 C 10.54762363433838 11.02342891693115 10.9490442276001 11.02151870727539 11.3504638671875 11.02151870727539 C 11.7923641204834 11.02151870727539 12.23750400543213 11.02385902404785 12.66798400878906 11.02611923217773 C 13.08529376983643 11.0283088684082 13.51681423187256 11.03056907653809 13.93201351165771 11.03056907653809 C 15.53951454162598 11.03056907653809 17.20163345336914 10.99858856201172 18.46814346313477 10.76659870147705 C 19.77842330932617 10.52659893035889 20.14138412475586 10.17192935943604 20.23661422729492 10.03057861328125 L 20.24838447570801 10.01310920715332 L 20.26052474975586 9.995888710021973 C 20.59391403198242 9.522859573364258 20.70092391967773 9.19291877746582 20.70092391967773 8.638038635253906 C 20.70092391967773 6.969939231872559 19.8004035949707 5.365959167480469 18.16524505615234 4.121559143066406 C 16.36754417419434 2.753449440002441 13.94734382629395 1.999999046325684 11.3504638671875 1.999999046325684 M 11.3504638671875 -9.5367431640625e-07 C 17.61915397644043 -9.5367431640625e-07 22.70092391967773 3.867379188537598 22.70092391967773 8.638038635253906 C 22.70092391967773 9.577858924865723 22.48067474365234 10.31750869750977 21.89528465270996 11.14807891845703 C 20.73727416992188 12.86687755584717 17.52960205078125 13.0305700302124 13.93201637268066 13.0305700302124 C 13.08578109741211 13.0305700302124 12.21829223632813 13.02151870727539 11.3504638671875 13.02151870727539 C 10.55792713165283 13.02151870727539 9.76537036895752 13.0290699005127 8.988288879394531 13.0290699005127 C 4.200817108154297 13.0290699005127 3.814697265625e-06 12.7424840927124 3.814697265625e-06 8.638038635253906 C 3.814697265625e-06 3.867379188537598 5.08177375793457 -9.5367431640625e-07 11.3504638671875 -9.5367431640625e-07 Z" stroke="none" fill="#0030aa"/>
      </g>
      <rect id="Rectangle_25" data-name="Rectangle 25" width="19" height="3" rx="1.5" transform="translate(13 24)" fill="#00d4ff"/>
      <g id="Path_3" data-name="Path 3" transform="translate(11 28)" fill="none">
        <path d="M2,0H20a2,2,0,0,1,2,2c0,3.1-3.4,4-4.5,4H4.5C3.391,6,0,5.1,0,2A2,2,0,0,1,2,0Z" stroke="none"/>
        <path d="M 2 2 C 2 2.425290107727051 2.100990295410156 2.976140022277832 2.888490676879883 3.46491003036499 C 3.546300888061523 3.873179912567139 4.297000885009766 4 4.496030807495117 4 L 17.49530029296875 4 C 17.69498062133789 4 18.44831085205078 3.872940063476563 19.10885047912598 3.463870048522949 C 19.89871025085449 2.974720001220703 20 2.424599885940552 20 2 L 2 2 M 2 0 L 20 0 C 21.10457038879395 0 22 0.8954300880432129 22 2 C 22 5.104569911956787 18.5998706817627 6 17.49530029296875 6 L 4.496030807495117 6 C 3.391460418701172 6 0 5.104569911956787 0 2 C 0 0.8954300880432129 0.8954296112060547 0 2 0 Z" stroke="none" fill="#0030aa"/>
      </g>
    </g>
  </g>
</svg>
