<svg xmlns="http://www.w3.org/2000/svg" xmlns:xlink="http://www.w3.org/1999/xlink" width="45" height="45" viewBox="0 0 45 45">
  <defs>
    <clipPath id="clip-ic_event">
      <rect width="45" height="45"/>
    </clipPath>
  </defs>
  <g id="ic_event" clip-path="url(#clip-ic_event)">
    <circle id="Ellipse_5" data-name="Ellipse 5" cx="22.5" cy="22.5" r="22.5" fill="#ebfdff"/>
    <g id="Group_1" data-name="Group 1" transform="matrix(0.966, -0.259, 0.259, 0.966, -5.092, 6.019)">
      <g id="Subtraction_2" data-name="Subtraction 2" transform="translate(470 410)" fill="none">
        <path d="M-436-378h-23a3,3,0,0,1-3-3v-4.051a2.471,2.471,0,0,0,.5.05,2.5,2.5,0,0,0,2.5-2.5,2.5,2.5,0,0,0-2.5-2.5,2.567,2.567,0,0,0-.5.049V-394a3,3,0,0,1,3-3h23a3,3,0,0,1,3,3v4.051a2.52,2.52,0,0,0-.5-.05,2.5,2.5,0,0,0-2.5,2.5,2.5,2.5,0,0,0,2.5,2.5,2.517,2.517,0,0,0,.5-.05V-381A3,3,0,0,1-436-378Z" stroke="none"/>
        <path d="M -435.9996032714844 -380 C -435.4483642578125 -380 -434.9999084472656 -380.4484558105469 -434.9999084472656 -380.9996948242188 L -434.9999084472656 -383.257080078125 C -436.7463073730469 -383.8760986328125 -438.0005187988281 -385.5445251464844 -438.0005187988281 -387.5003967285156 C -438.0005187988281 -389.4558715820313 -436.7463073730469 -391.1239929199219 -434.9999084472656 -391.7428588867188 L -434.9999084472656 -394.0002136230469 C -434.9999084472656 -394.5514526367188 -435.4483642578125 -394.9999084472656 -435.9996032714844 -394.9999084472656 L -459 -394.9999084472656 C -459.5512390136719 -394.9999084472656 -459.9997253417969 -394.5514526367188 -459.9997253417969 -394.0002136230469 L -459.9997253417969 -391.7425537109375 C -458.2537536621094 -391.1234436035156 -457 -389.45556640625 -457 -387.5003967285156 C -457 -385.5448303222656 -458.2537536621094 -383.8766174316406 -459.9997253417969 -383.2574157714844 L -459.9997253417969 -380.9996948242188 C -459.9997253417969 -380.4484558105469 -459.5512390136719 -380 -459 -380 L -435.9996032714844 -380 M -435.9996032714844 -378 L -459 -378 C -460.654052734375 -378 -461.9997253417969 -379.3456726074219 -461.9997253417969 -380.9996948242188 L -461.9997253417969 -385.0505981445313 C -461.8394470214844 -385.0174865722656 -461.6718139648438 -385.0002136230469 -461.5002136230469 -385.0002136230469 C -460.12158203125 -385.0002136230469 -459 -386.1217956542969 -459 -387.5003967285156 C -459 -388.8785095214844 -460.12158203125 -389.9996948242188 -461.5002136230469 -389.9996948242188 C -461.6665649414063 -389.9996948242188 -461.8346252441406 -389.9830322265625 -461.9997253417969 -389.9501953125 L -461.9997253417969 -394.0002136230469 C -461.9997253417969 -395.6542358398438 -460.654052734375 -396.9999084472656 -459 -396.9999084472656 L -435.9996032714844 -396.9999084472656 C -434.3455810546875 -396.9999084472656 -432.9999084472656 -395.6542358398438 -432.9999084472656 -394.0002136230469 L -432.9999084472656 -389.9496154785156 C -433.1620788574219 -389.9825134277344 -433.3300476074219 -389.9996948242188 -433.5003051757813 -389.9996948242188 C -434.8789367675781 -389.9996948242188 -436.0005187988281 -388.8785095214844 -436.0005187988281 -387.5003967285156 C -436.0005187988281 -386.1217956542969 -434.8789367675781 -385.0002136230469 -433.5003051757813 -385.0002136230469 C -433.3319091796875 -385.0002136230469 -433.1635437011719 -385.0170593261719 -432.9999084472656 -385.0503234863281 L -432.9999084472656 -380.9996948242188 C -432.9999084472656 -379.3456726074219 -434.3455810546875 -378 -435.9996032714844 -378 Z" stroke="none" fill="#0030aa"/>
      </g>
      <line id="Line_1" data-name="Line 1" y2="18" transform="translate(28.5 13.5)" fill="none" stroke="#0030aa" stroke-width="2" stroke-dasharray="2"/>
      <circle id="Ellipse_6" data-name="Ellipse 6" cx="4" cy="4" r="4" transform="translate(15.673 18.484)" fill="#00d4ff"/>
    </g>
  </g>
</svg>
