<svg width="27" height="22" viewBox="0 0 27 22" fill="none" xmlns="http://www.w3.org/2000/svg">
<path d="M27 2.63575C25.9853 3.07638 24.9121 3.36767 23.814 3.50055C24.9725 2.80779 25.8407 1.71796 26.2575 0.433211C25.1688 1.0819 23.977 1.53893 22.734 1.78446C21.9031 0.882599 20.7967 0.282272 19.5882 0.0776316C18.3798 -0.127008 17.1376 0.0756142 16.0566 0.653721C14.9756 1.23183 14.1169 2.15272 13.6151 3.27197C13.1133 4.39121 12.9968 5.64551 13.284 6.83813C11.0827 6.72669 8.9295 6.15299 6.96418 5.15429C4.99887 4.15559 3.26544 2.75424 1.8765 1.04127C1.38934 1.89279 1.13335 2.85711 1.134 3.83836C1.13227 4.74962 1.35569 5.64717 1.78437 6.45109C2.21305 7.25501 2.83367 7.94036 3.591 8.44612C2.71077 8.42215 1.84935 8.18573 1.08 7.75698V7.82455C1.0866 9.10133 1.53359 10.3366 2.34537 11.3215C3.15716 12.3064 4.2839 12.9804 5.535 13.2295C5.0534 13.3762 4.55338 13.4536 4.05 13.4593C3.70155 13.4552 3.35397 13.4236 3.0105 13.3647C3.36678 14.463 4.05624 15.4228 4.98295 16.1106C5.90966 16.7984 7.02753 17.18 8.181 17.2022C6.23322 18.7362 3.82844 19.5735 1.35 19.5804C0.898743 19.5819 0.447843 19.5548 0 19.4993C2.53048 21.1347 5.4794 22.0028 8.4915 21.9992C10.5701 22.0208 12.6321 21.6276 14.5572 20.8426C16.4823 20.0576 18.2318 18.8965 19.7035 17.4272C21.1753 15.9579 22.3398 14.2097 23.129 12.2849C23.9182 10.3601 24.3163 8.29712 24.3 6.21656C24.3 5.98685 24.3 5.74362 24.3 5.5004C25.3593 4.70966 26.273 3.74029 27 2.63575Z" fill="#eee"/>
</svg>
